<svg id="Layer_1" data-name="Layer 1" xmlns="http://www.w3.org/2000/svg" viewBox="0 0 3694.19 730.38"><defs><style>.cls-1{fill:#fff;}</style></defs><path class="cls-1" d="M48.69,317.56q19.05,0,32.82,13.76t13.76,32.81v2.12q0,19-13.76,32.81T48.69,412.82H46.57a44.75,44.75,0,0,1-32.81-13.76A44.75,44.75,0,0,1,0,366.25v-2.12q0-19,13.76-32.81t32.81-13.76ZM154.54,105.85q19.07,0,32.82,13.76t13.76,32.82v2.11q0,19.07-13.76,32.82t-32.82,13.76h-2.11q-19.06,0-32.82-13.76a44.75,44.75,0,0,1-13.76-32.82v-2.11q0-19.06,13.76-32.82t32.82-13.76Zm0,105.85q19.07,0,32.82,13.76t13.76,32.82v2.12q0,19.05-13.76,32.81T154.54,307h-2.11q-19.06,0-32.82-13.76a44.75,44.75,0,0,1-13.76-32.81v-2.12q0-19,13.76-32.82t32.82-13.76Zm0,105.86q19.07,0,32.82,13.76t13.76,32.81v2.12q0,19-13.76,32.81t-32.82,13.76h-2.11q-19.06,0-32.82-13.76a44.75,44.75,0,0,1-13.76-32.81v-2.12q0-19,13.76-32.81t32.82-13.76Zm0,105.85q19.07,0,32.82,13.76T201.12,470v2.12q0,19-13.76,32.81t-32.82,13.77h-2.11q-19.06,0-32.82-13.77a44.75,44.75,0,0,1-13.76-32.81V470q0-19.05,13.76-32.81t32.82-13.76Zm0,105.85q19.07,0,32.82,13.76t13.76,32.82V578q0,19-13.76,32.82t-32.82,13.76h-2.11q-19.06,0-32.82-13.76T105.85,578v-2.11q0-19.07,13.76-32.82t32.82-13.76Zm0,105.85q19.07,0,32.82,13.76t13.76,32.82v2.11q0,19.07-13.76,32.82t-32.82,13.76h-2.11q-19.06,0-32.82-13.76a44.75,44.75,0,0,1-13.76-32.82v-2.11q0-19.05,13.76-32.82t32.82-13.76ZM260.4,0q19.05,0,32.81,13.76T307,46.57v2.12q0,19.05-13.76,32.82T260.4,95.27h-2.12q-19,0-32.82-13.76T211.7,48.69V46.57q0-19.05,13.76-32.81T258.28,0Zm0,317.56q19.05,0,32.81,13.76T307,364.13v2.12q0,19-13.76,32.81T260.4,412.82h-2.12q-19,0-32.82-13.76T211.7,366.25v-2.12q0-19,13.76-32.81t32.82-13.76ZM366.25,0q19,0,32.81,13.76t13.76,32.81v2.12q0,19.05-13.76,32.82T366.25,95.27h-2.12a44.75,44.75,0,0,1-32.81-13.76q-13.77-13.76-13.76-32.82V46.57q0-19.05,13.76-32.81T364.13,0Zm0,317.56q19,0,32.81,13.76t13.76,32.81v2.12q0,19-13.76,32.81t-32.81,13.76h-2.12a47,47,0,0,1-46.57-46.57v-2.12q0-19,13.76-32.81t32.81-13.76ZM472.1,105.85q19,0,32.81,13.76t13.77,32.82v2.11q0,19.07-13.77,32.82T472.1,201.12H470a47,47,0,0,1-46.57-46.58v-2.11q0-19.06,13.76-32.82T470,105.85Z"/><path class="cls-1" d="M789.65,0q19.05,0,32.81,13.76t13.76,32.81v2.12q0,19.05-13.76,32.82T789.65,95.27h-2.12a44.75,44.75,0,0,1-32.81-13.76Q740.95,67.76,741,48.69V46.57q0-19.05,13.77-32.81T787.53,0Zm0,635.11q19.05,0,32.81,13.76t13.76,32.82v2.11q0,19.07-13.76,32.82t-32.81,13.76h-2.12a44.75,44.75,0,0,1-32.81-13.76Q740.95,702.88,741,683.8v-2.11q0-19.05,13.77-32.82t32.81-13.76ZM895.5,0q19.05,0,32.81,13.76t13.76,32.81v2.12q0,19.05-13.76,32.82T895.5,95.27h-2.12a44.75,44.75,0,0,1-32.81-13.76Q846.8,67.76,846.81,48.69V46.57q0-19.05,13.76-32.81T893.38,0Zm0,105.85q19.05,0,32.81,13.76t13.76,32.82v2.11q0,19.07-13.76,32.82T895.5,201.12h-2.12a47,47,0,0,1-46.57-46.58v-2.11q0-19.06,13.76-32.82t32.81-13.76Zm0,105.85q19.05,0,32.81,13.76t13.76,32.82v2.12q0,19.05-13.76,32.81T895.5,307h-2.12a47,47,0,0,1-46.57-46.57v-2.12q0-19,13.76-32.82t32.81-13.76Zm0,105.86q19.05,0,32.81,13.76t13.76,32.81v2.12q0,19-13.76,32.81T895.5,412.82h-2.12a47,47,0,0,1-46.57-46.57v-2.12q0-19,13.76-32.81t32.81-13.76Zm0,105.85q19.05,0,32.81,13.76T942.07,470v2.12q0,19-13.76,32.81T895.5,518.68h-2.12q-19.05,0-32.81-13.77a44.75,44.75,0,0,1-13.76-32.81V470q0-19.05,13.76-32.81t32.81-13.76Zm0,105.85q19.05,0,32.81,13.76t13.76,32.82V578q0,19-13.76,32.82T895.5,624.53h-2.12a44.75,44.75,0,0,1-32.81-13.76Q846.8,597,846.81,578v-2.11q0-19.07,13.76-32.82t32.81-13.76Zm0,105.85q19.05,0,32.81,13.76t13.76,32.82v2.11q0,19.07-13.76,32.82T895.5,730.38h-2.12a47,47,0,0,1-46.57-46.58v-2.11q0-19.05,13.76-32.82t32.81-13.76Zm105.85,0q19,0,32.82,13.76t13.76,32.82v2.11q0,19.07-13.76,32.82t-32.82,13.76h-2.12a47,47,0,0,1-46.57-46.58v-2.11q0-19.05,13.76-32.82t32.81-13.76Z"/><path class="cls-1" d="M1318.9,211.7q19,0,32.81,13.76t13.76,32.82v2.12q0,19.05-13.76,32.81T1318.9,307h-2.12a47,47,0,0,1-46.57-46.57v-2.12q0-19,13.76-32.82t32.81-13.76Zm0,105.86q19,0,32.81,13.76t13.76,32.81v2.12q0,19-13.76,32.81t-32.81,13.76h-2.12a47,47,0,0,1-46.57-46.57v-2.12q0-19,13.76-32.81t32.81-13.76Zm0,105.85q19,0,32.81,13.76T1365.47,470v2.12q0,19-13.76,32.81t-32.81,13.77h-2.12q-19,0-32.81-13.77a44.75,44.75,0,0,1-13.76-32.81V470q0-19.05,13.76-32.81t32.81-13.76Zm0,105.85q19,0,32.81,13.76t13.76,32.82V578q0,19-13.76,32.82t-32.81,13.76h-2.12A44.75,44.75,0,0,1,1284,610.77Q1270.2,597,1270.21,578v-2.11q0-19.07,13.76-32.82t32.81-13.76Zm105.85,105.85q19.05,0,32.82,13.76t13.76,32.82v2.11q0,19.07-13.76,32.82t-32.82,13.76h-2.12a47,47,0,0,1-46.57-46.58v-2.11q0-19.05,13.76-32.82t32.81-13.76Zm105.85,0q19.07,0,32.82,13.76t13.76,32.82v2.11q0,19.07-13.76,32.82t-32.82,13.76h-2.11q-19.07,0-32.82-13.76a44.75,44.75,0,0,1-13.76-32.82v-2.11q0-19.05,13.76-32.82t32.82-13.76Zm105.86-105.85q19.05,0,32.81,13.76T1683,575.84V578q0,19-13.76,32.82t-32.81,13.76h-2.12q-19,0-32.82-13.76T1587.76,578v-2.11q0-19.07,13.76-32.82t32.82-13.76ZM1742.31,211.7q19.05,0,32.81,13.76t13.76,32.82v2.12q0,19.05-13.76,32.81T1742.31,307h-2.12a47,47,0,0,1-46.57-46.57v-2.12q0-19,13.76-32.82t32.81-13.76Zm0,105.86q19.05,0,32.81,13.76t13.76,32.81v2.12q0,19-13.76,32.81t-32.81,13.76h-2.12a47,47,0,0,1-46.57-46.57v-2.12q0-19,13.76-32.81t32.81-13.76Zm0,105.85q19.05,0,32.81,13.76T1788.88,470v2.12q0,19-13.76,32.81t-32.81,13.77h-2.12q-19.05,0-32.81-13.77a44.75,44.75,0,0,1-13.76-32.81V470q0-19.05,13.76-32.81t32.81-13.76Zm0,105.85q19.05,0,32.81,13.76t13.76,32.82V578q0,19-13.76,32.82t-32.81,13.76h-2.12a44.75,44.75,0,0,1-32.81-13.76Q1693.61,597,1693.62,578v-2.11q0-19.07,13.76-32.82t32.81-13.76Zm0,105.85q19.05,0,32.81,13.76t13.76,32.82v2.11q0,19.07-13.76,32.82t-32.81,13.76h-2.12a47,47,0,0,1-46.57-46.58v-2.11q0-19.05,13.76-32.82t32.81-13.76Z"/><path class="cls-1" d="M1954,317.56q19.05,0,32.82,13.76t13.76,32.81v2.12q0,19-13.76,32.81T1954,412.82h-2.12a47,47,0,0,1-46.57-46.57v-2.12q0-19,13.76-32.81t32.81-13.76Zm0,105.85q19.05,0,32.82,13.76T2000.58,470v2.12q0,19-13.76,32.81T1954,518.68h-2.12q-19.05,0-32.81-13.77a44.75,44.75,0,0,1-13.76-32.81V470q0-19.05,13.76-32.81t32.81-13.76Zm0,105.85q19.05,0,32.82,13.76t13.76,32.82V578q0,19-13.76,32.82T1954,624.53h-2.12a44.75,44.75,0,0,1-32.81-13.76Q1905.3,597,1905.31,578v-2.11q0-19.07,13.76-32.82t32.81-13.76ZM2059.85,211.7q19.07,0,32.82,13.76t13.76,32.82v2.12q0,19.05-13.76,32.81T2059.85,307h-2.11q-19.06,0-32.82-13.76a44.75,44.75,0,0,1-13.76-32.81v-2.12q0-19,13.76-32.82t32.82-13.76Zm0,211.71q19.07,0,32.82,13.76T2106.43,470v2.12q0,19-13.76,32.81t-32.82,13.77h-2.11q-19.06,0-32.82-13.77a44.75,44.75,0,0,1-13.76-32.81V470q0-19.05,13.76-32.81t32.82-13.76Zm0,211.7q19.07,0,32.82,13.76t13.76,32.82v2.11q0,19.07-13.76,32.82t-32.82,13.76h-2.11q-19.06,0-32.82-13.76a44.75,44.75,0,0,1-13.76-32.82v-2.11q0-19.05,13.76-32.82t32.82-13.76ZM2165.71,211.7q19,0,32.81,13.76t13.76,32.82v2.12q0,19.05-13.76,32.81T2165.71,307h-2.12q-19.05,0-32.82-13.76T2117,260.4v-2.12q0-19,13.76-32.82t32.82-13.76Zm0,211.71q19,0,32.81,13.76T2212.28,470v2.12q0,19-13.76,32.81t-32.81,13.77h-2.12q-19.05,0-32.82-13.77T2117,472.1V470q0-19.05,13.76-32.81t32.82-13.76Zm0,211.7q19,0,32.81,13.76t13.76,32.82v2.11q0,19.07-13.76,32.82t-32.81,13.76h-2.12q-19.05,0-32.82-13.76T2117,683.8v-2.11q0-19.05,13.76-32.82t32.82-13.76ZM2271.56,211.7q19.05,0,32.81,13.76t13.76,32.82v2.12q0,19.05-13.76,32.81T2271.56,307h-2.12a47,47,0,0,1-46.57-46.57v-2.12q0-19,13.76-32.82t32.81-13.76Zm0,211.71q19.05,0,32.81,13.76T2318.13,470v2.12q0,19-13.76,32.81t-32.81,13.77h-2.12q-19.05,0-32.81-13.77a44.75,44.75,0,0,1-13.76-32.81V470q0-19.05,13.76-32.81t32.81-13.76Zm0,211.7q19.05,0,32.81,13.76t13.76,32.82v2.11q0,19.07-13.76,32.82t-32.81,13.76h-2.12a47,47,0,0,1-46.57-46.58v-2.11q0-19.05,13.76-32.82t32.81-13.76Zm105.85-317.55q19.05,0,32.81,13.76T2424,364.13v2.12q0,19-13.76,32.81t-32.81,13.76h-2.12a47,47,0,0,1-46.57-46.57v-2.12q0-19,13.76-32.81t32.81-13.76Zm0,105.85q19.05,0,32.81,13.76T2424,470v2.12q0,19-13.76,32.81t-32.81,13.77h-2.12q-19,0-32.81-13.77a44.75,44.75,0,0,1-13.76-32.81V470q0-19.05,13.76-32.81t32.81-13.76Z"/><path class="cls-1" d="M2589.1,211.7q19.07,0,32.82,13.76t13.76,32.82v2.12q0,19.05-13.76,32.81T2589.1,307H2587q-19.06,0-32.82-13.76a44.75,44.75,0,0,1-13.76-32.81v-2.12q0-19,13.76-32.82T2587,211.7Zm0,105.86q19.07,0,32.82,13.76t13.76,32.81v2.12q0,19-13.76,32.81t-32.82,13.76H2587q-19.06,0-32.82-13.76a44.75,44.75,0,0,1-13.76-32.81v-2.12q0-19,13.76-32.81T2587,317.56Zm0,105.85q19.07,0,32.82,13.76T2635.68,470v2.12q0,19-13.76,32.81t-32.82,13.77H2587q-19.06,0-32.82-13.77a44.75,44.75,0,0,1-13.76-32.81V470q0-19.05,13.76-32.81T2587,423.41Zm0,105.85q19.07,0,32.82,13.76t13.76,32.82V578q0,19-13.76,32.82t-32.82,13.76H2587q-19.06,0-32.82-13.76T2540.41,578v-2.11q0-19.07,13.76-32.82T2587,529.26Zm0,105.85q19.07,0,32.82,13.76t13.76,32.82v2.11q0,19.07-13.76,32.82t-32.82,13.76H2587q-19.06,0-32.82-13.76a44.75,44.75,0,0,1-13.76-32.82v-2.11q0-19.05,13.76-32.82T2587,635.11ZM2695,317.56q19,0,32.81,13.76t13.76,32.81v2.12q0,19-13.76,32.81T2695,412.82h-2.12q-19.05,0-32.82-13.76t-13.76-32.81v-2.12q0-19,13.76-32.81t32.82-13.76ZM2800.81,211.7q19.05,0,32.81,13.76t13.76,32.82v2.12q0,19.05-13.76,32.81T2800.81,307h-2.12a47,47,0,0,1-46.57-46.57v-2.12q0-19,13.76-32.82t32.81-13.76Zm105.85,0q19.05,0,32.81,13.76t13.77,32.82v2.12q0,19.05-13.77,32.81T2906.66,307h-2.12A47,47,0,0,1,2858,260.4v-2.12q0-19,13.76-32.82t32.81-13.76Zm105.85,105.86q19,0,32.82,13.76t13.76,32.81v2.12q0,19-13.76,32.81t-32.82,13.76h-2.11a47,47,0,0,1-46.58-46.57v-2.12q0-19,13.76-32.81t32.82-13.76Zm0,105.85q19,0,32.82,13.76T3059.09,470v2.12q0,19-13.76,32.81t-32.82,13.77h-2.11q-19.07,0-32.82-13.77a44.75,44.75,0,0,1-13.76-32.81V470q0-19.05,13.76-32.81t32.82-13.76Zm0,105.85q19,0,32.82,13.76t13.76,32.82V578q0,19-13.76,32.82t-32.82,13.76h-2.11a44.75,44.75,0,0,1-32.82-13.76Q2963.81,597,2963.82,578v-2.11q0-19.07,13.76-32.82t32.82-13.76Zm0,105.85q19,0,32.82,13.76t13.76,32.82v2.11q0,19.07-13.76,32.82t-32.82,13.76h-2.11a47,47,0,0,1-46.58-46.58v-2.11q0-19.05,13.76-32.82t32.82-13.76Z"/><path class="cls-1" d="M3224.21,211.7q19,0,32.81,13.76t13.76,32.82v2.12q0,19.05-13.76,32.81T3224.21,307h-2.12a47,47,0,0,1-46.57-46.57v-2.12q0-19,13.76-32.82t32.81-13.76ZM3330.06,0q19.05,0,32.81,13.76t13.77,32.81v2.12q0,19.05-13.77,32.82t-32.81,13.76h-2.12a44.75,44.75,0,0,1-32.81-13.76q-13.77-13.76-13.76-32.82V46.57q0-19.05,13.76-32.81T3327.94,0Zm0,105.85q19.05,0,32.81,13.76t13.77,32.82v2.11q0,19.07-13.77,32.82t-32.81,13.76h-2.12a47,47,0,0,1-46.57-46.58v-2.11q0-19.06,13.76-32.82t32.81-13.76Zm0,105.85q19.05,0,32.81,13.76t13.77,32.82v2.12q0,19.05-13.77,32.81T3330.06,307h-2.12a47,47,0,0,1-46.57-46.57v-2.12q0-19,13.76-32.82t32.81-13.76Zm0,105.86q19.05,0,32.81,13.76t13.77,32.81v2.12q0,19-13.77,32.81t-32.81,13.76h-2.12a47,47,0,0,1-46.57-46.57v-2.12q0-19,13.76-32.81t32.81-13.76Zm0,105.85q19.05,0,32.81,13.76T3376.64,470v2.12q0,19-13.77,32.81t-32.81,13.77h-2.12q-19.05,0-32.81-13.77a44.75,44.75,0,0,1-13.76-32.81V470q0-19.05,13.76-32.81t32.81-13.76Zm0,105.85q19.05,0,32.81,13.76t13.77,32.82V578q0,19-13.77,32.82t-32.81,13.76h-2.12a44.75,44.75,0,0,1-32.81-13.76Q3281.36,597,3281.37,578v-2.11q0-19.07,13.76-32.82t32.81-13.76ZM3435.91,211.7q19.05,0,32.82,13.76t13.76,32.82v2.12q0,19.05-13.76,32.81T3435.91,307h-2.11a47,47,0,0,1-46.58-46.57v-2.12q0-19,13.76-32.82t32.82-13.76Zm0,423.41q19.05,0,32.82,13.76t13.76,32.82v2.11q0,19.07-13.76,32.82t-32.82,13.76h-2.11a47,47,0,0,1-46.58-46.58v-2.11q0-19.05,13.76-32.82t32.82-13.76ZM3541.76,211.7q19.06,0,32.82,13.76t13.76,32.82v2.12q0,19.05-13.76,32.81T3541.76,307h-2.11q-19.05,0-32.82-13.76a44.75,44.75,0,0,1-13.76-32.81v-2.12q0-19,13.76-32.82t32.82-13.76Zm0,423.41q19.06,0,32.82,13.76t13.76,32.82v2.11q0,19.07-13.76,32.82t-32.82,13.76h-2.11q-19.05,0-32.82-13.76a44.75,44.75,0,0,1-13.76-32.82v-2.11q0-19.05,13.76-32.82t32.82-13.76Zm105.86-105.85q19.05,0,32.81,13.76t13.76,32.82V578q0,19-13.76,32.82t-32.81,13.76h-2.12a44.75,44.75,0,0,1-32.81-13.76Q3598.92,597,3598.92,578v-2.11q0-19.07,13.77-32.82t32.81-13.76Z"/></svg>