<svg id="Layer_1" data-name="Layer 1" xmlns="http://www.w3.org/2000/svg" viewBox="0 0 1000 1000"><defs><style>.cls-1{fill:#fff;}</style></defs><rect width="1000" height="1000" rx="500"/><path class="cls-1" d="M305.9,456.11A43.3,43.3,0,0,1,348.81,499v2a43.3,43.3,0,0,1-42.91,42.91h-2A43.3,43.3,0,0,1,261,501v-2a43.3,43.3,0,0,1,42.91-42.92ZM403.43,261a43.3,43.3,0,0,1,42.92,42.91v2a43.3,43.3,0,0,1-42.92,42.91h-1.95a43.3,43.3,0,0,1-42.91-42.91v-2A43.3,43.3,0,0,1,401.48,261Zm0,97.54a43.3,43.3,0,0,1,42.92,42.91v2a43.3,43.3,0,0,1-42.92,42.91h-1.95a43.3,43.3,0,0,1-42.91-42.91v-2a43.3,43.3,0,0,1,42.91-42.91Zm0,97.54A43.3,43.3,0,0,1,446.35,499v2a43.3,43.3,0,0,1-42.92,42.91h-1.95A43.3,43.3,0,0,1,358.57,501v-2a43.3,43.3,0,0,1,42.91-42.92Zm0,97.54a43.3,43.3,0,0,1,42.92,42.91v2a43.3,43.3,0,0,1-42.92,42.91h-1.95a43.3,43.3,0,0,1-42.91-42.91v-2a43.3,43.3,0,0,1,42.91-42.91Zm0,97.54a43.3,43.3,0,0,1,42.92,42.92v1.95A43.3,43.3,0,0,1,403.43,739h-1.95a43.3,43.3,0,0,1-42.91-42.91v-1.95a43.3,43.3,0,0,1,42.91-42.92Zm0,97.54a43.3,43.3,0,0,1,42.92,42.91v2a43.3,43.3,0,0,1-42.92,42.91h-1.95a43.3,43.3,0,0,1-42.91-42.91v-2a43.3,43.3,0,0,1,42.91-42.91ZM501,163.49a43.3,43.3,0,0,1,42.91,42.92v2A43.3,43.3,0,0,1,501,251.27h-2a43.3,43.3,0,0,1-42.91-42.91v-2A43.3,43.3,0,0,1,499,163.49Zm0,292.62A43.3,43.3,0,0,1,543.89,499v2A43.3,43.3,0,0,1,501,543.89h-2A43.3,43.3,0,0,1,456.11,501v-2A43.3,43.3,0,0,1,499,456.11Zm97.53-292.62a43.3,43.3,0,0,1,42.92,42.92v2a43.3,43.3,0,0,1-42.92,42.91h-2a43.3,43.3,0,0,1-42.91-42.91v-2a43.3,43.3,0,0,1,42.91-42.92Zm0,292.62A43.3,43.3,0,0,1,641.43,499v2a43.3,43.3,0,0,1-42.92,42.91h-2A43.3,43.3,0,0,1,553.65,501v-2a43.3,43.3,0,0,1,42.91-42.92ZM696.06,261A43.3,43.3,0,0,1,739,303.94v2a43.3,43.3,0,0,1-42.91,42.91h-2a43.3,43.3,0,0,1-42.91-42.91v-2A43.3,43.3,0,0,1,694.1,261Z"/></svg>